<?xml version="1.0" encoding="UTF-8" standalone="no"?>
<!-- Uploaded to: SVG Repo, www.svgrepo.com, Generator: SVG Repo Mixer Tools -->

<svg
   width="800px"
   height="800px"
   viewBox="0 0 105.1 105.1"
   version="1.1"
   id="svg50"
   sodipodi:docname="RustySwitch.svg"
   xml:space="preserve"
   inkscape:version="1.2.2 (b0a8486541, 2022-12-01)"
   inkscape:export-filename="RustySwitch.png"
   inkscape:export-xdpi="96"
   inkscape:export-ydpi="96"
   xmlns:inkscape="http://www.inkscape.org/namespaces/inkscape"
   xmlns:sodipodi="http://sodipodi.sourceforge.net/DTD/sodipodi-0.dtd"
   xmlns:xlink="http://www.w3.org/1999/xlink"
   xmlns="http://www.w3.org/2000/svg"
   xmlns:svg="http://www.w3.org/2000/svg"><sodipodi:namedview
     id="namedview52"
     pagecolor="#ffffff"
     bordercolor="#000000"
     borderopacity="0.25"
     inkscape:showpageshadow="2"
     inkscape:pageopacity="0.0"
     inkscape:pagecheckerboard="0"
     inkscape:deskcolor="#d1d1d1"
     showgrid="false"
     inkscape:zoom="0.62500002"
     inkscape:cx="202.39999"
     inkscape:cy="541.59999"
     inkscape:window-width="2560"
     inkscape:window-height="1412"
     inkscape:window-x="1920"
     inkscape:window-y="0"
     inkscape:window-maximized="1"
     inkscape:current-layer="svg50" /><defs
     id="defs26"><linearGradient
       inkscape:collect="always"
       id="linearGradient2984"><stop
         style="stop-color:#7d7d7d;stop-opacity:1;"
         offset="0"
         id="stop2980" /><stop
         style="stop-color:#7d7c7b;stop-opacity:1;"
         offset="0.5"
         id="stop2988" /><stop
         style="stop-color:#7f7a76;stop-opacity:1;"
         offset="0.75"
         id="stop2990" /><stop
         style="stop-color:#807973;stop-opacity:1;"
         offset="0.875"
         id="stop2992" /><stop
         style="stop-color:#8d684c;stop-opacity:1;"
         offset="0.9375"
         id="stop2994" /><stop
         style="stop-color:#91623e;stop-opacity:1;"
         offset="0.96875"
         id="stop2996" /><stop
         style="stop-color:#965c30;stop-opacity:1;"
         offset="1"
         id="stop2982" /></linearGradient><radialGradient
       id="a"
       cx="66.024"
       cy="35.312"
       r="13.158"
       gradientUnits="userSpaceOnUse"><stop
         offset="0"
         stop-color="#7d7d7d"
         id="stop2" /><stop
         offset="0.267"
         stop-color="#7e7c7a"
         id="stop4" /><stop
         offset="0.45"
         stop-color="#817871"
         id="stop6" /><stop
         offset="0.608"
         stop-color="#867162"
         id="stop8" /><stop
         offset="0.753"
         stop-color="#8d684c"
         id="stop10" /><stop
         offset="0.886"
         stop-color="#965c30"
         id="stop12" /><stop
         offset="1"
         stop-color="#a04f12"
         id="stop14" /></radialGradient><radialGradient
       id="b"
       cx="62.112"
       cy="59.65"
       r="22.181"
       xlink:href="#a" /><radialGradient
       id="c"
       cx="78.557"
       cy="34.677"
       r="6.267"
       xlink:href="#a" /><radialGradient
       id="d"
       cx="40.676"
       cy="67.188"
       r="13.356"
       xlink:href="#a" /><radialGradient
       id="e"
       cx="27.993"
       cy="68.059"
       r="6.308"
       xlink:href="#a" /><radialGradient
       id="f"
       cx="27.55"
       cy="38.75"
       r="0.25"
       xlink:href="#a" /><radialGradient
       id="g"
       cx="26.75"
       cy="44.05"
       r="6.65"
       xlink:href="#a" /><radialGradient
       id="h"
       cx="48.549"
       cy="25.889"
       r="6.691"
       xlink:href="#a" /><radialGradient
       id="i"
       cx="36.806"
       cy="33.95"
       r="10.728"
       xlink:href="#a" /><radialGradient
       id="j"
       cx="52.55"
       cy="52.488"
       r="52.206"
       xlink:href="#a" /><radialGradient
       inkscape:collect="always"
       xlink:href="#linearGradient2984"
       id="radialGradient2998"
       gradientUnits="userSpaceOnUse"
       gradientTransform="matrix(0.07116348,0,0,0.07100678,16.086428,15.58821)"
       cx="512.39163"
       cy="509.96241"
       fx="512.39163"
       fy="509.96241"
       r="415.47987" /></defs><title
     id="title28">file_type_rust_toolchain</title><path
     d="M52.5.3a1.457,1.457,0,0,0-1.3.7L48.5,5.4l-1.3.1L43.7,1.7a1.521,1.521,0,0,0-2.5.5L39.4,7l-1.2.4L34,4.4a1.639,1.639,0,0,0-2.4,1l-.8,5.1-1.2.5L24.9,8.9a1.528,1.528,0,0,0-2.1,1.4l.2,5.2-1,.8-5-1.2a1.553,1.553,0,0,0-1.8,1.8l1.2,5-.8,1-5.2-.2A1.542,1.542,0,0,0,9,24.8l2.1,4.7-.6,1.1-5.1.8a1.618,1.618,0,0,0-1,2.4l3,4.2L7,39.4,2.2,41.2a1.53,1.53,0,0,0-.5,2.5l3.8,3.5-.1,1.3L1,51.2a1.589,1.589,0,0,0,0,2.6l4.4,2.7.1,1.3L1.7,61.3a1.521,1.521,0,0,0,.5,2.5L7,65.7l.4,1.2-3,4.2a1.618,1.618,0,0,0,1,2.4l5.1.8.6,1.1L9,80.1a1.528,1.528,0,0,0,1.4,2.1l5.2-.2.8,1-1.2,5A1.553,1.553,0,0,0,17,89.8l5-1.2,1,.8-.2,5.2A1.542,1.542,0,0,0,24.9,96l4.7-2.1,1.1.6.8,5.1a1.618,1.618,0,0,0,2.4,1l4.2-3,1.2.4,1.8,4.8a1.53,1.53,0,0,0,2.5.5l3.5-3.8,1.3.1,2.7,4.4a1.589,1.589,0,0,0,2.6,0l2.7-4.4,1.3-.1,3.5,3.8a1.521,1.521,0,0,0,2.5-.5L65.5,98l1.2-.4,4.2,3a1.639,1.639,0,0,0,2.4-1l.8-5.1,1.1-.6L79.9,96A1.528,1.528,0,0,0,82,94.6l-.2-5.2,1-.8,5,1.2A1.553,1.553,0,0,0,89.6,88l-1.2-5,.8-1,5.2.2a1.542,1.542,0,0,0,1.4-2.1L94,75.4l.6-1.1,5.1-.8a1.618,1.618,0,0,0,1-2.4l-3-4.2.4-1.2,4.8-1.8a1.53,1.53,0,0,0,.5-2.5l-3.8-3.5.1-1.3,4.4-2.7a1.589,1.589,0,0,0,0-2.6l-4.4-2.7-.1-1.3,3.8-3.5a1.521,1.521,0,0,0-.5-2.5l-4.8-1.8-.4-1.2,3-4.2a1.639,1.639,0,0,0-1-2.4l-5.1-.8L94,29.6l2.1-4.7a1.528,1.528,0,0,0-1.4-2.1l-5.1.2-.8-1L90,17a1.553,1.553,0,0,0-1.8-1.8l-5,1.2-1-.8.2-5.2A1.542,1.542,0,0,0,80.3,9l-4.8,2-1.1-.6-.8-5.1a1.618,1.618,0,0,0-2.4-1L67,7.3,65.7,7,63.9,2.2a1.53,1.53,0,0,0-2.5-.5L57.9,5.5l-1.3-.1L53.9,1A1.513,1.513,0,0,0,52.5.3Zm0,9.2h0a3.031,3.031,0,0,1,3,3.1c0,4.1-6.2,4.1-6.2,0a3.019,3.019,0,0,1,3.2-3.1Zm7.1,5.1A38.488,38.488,0,0,1,85.8,33.3l-3.7,8.3a2.826,2.826,0,0,0,1.4,3.7l7.1,3.1c.2,2.2,0,6.6,0,6.6a38.724,38.724,0,0,1-7.4,19.9A51.709,51.709,0,0,1,79.8,79l-6.6-1.4a2.9,2.9,0,0,0-3.4,2.2l-1.6,7.3a38.217,38.217,0,0,1-31.9-.2l-1.6-7.3a2.88,2.88,0,0,0-3.4-2.2l-6.4,1.4c-1.2-1.2-3.3-3.9-3.3-3.9a37.54,37.54,0,0,1-6-12.2s-.4-1.5-.6-2.2c-.1-.3-.1-.6-.2-.9a23.356,23.356,0,0,1-.4-2.6c-.1-.4-.1-.8-.2-1.3-.1-.7-.2-3.1-.2-3.5V50.9c0-.5.1-1,.1-1.5,0-.4.1-.9.1-1.3l6.7-3a2.823,2.823,0,0,0,1.4-3.8l-3.4-7.7a37.465,37.465,0,0,1,4.9-6.9s.9-1,1.2-1.3c.6-.6,1.2-1.2,1.9-1.8l.2-.2h0a38.074,38.074,0,0,1,18-8.8l4.8,5a2.839,2.839,0,0,0,4,.1Zm-44.2,23h0a3.022,3.022,0,0,1,1.6.5h0a3.106,3.106,0,0,1-1.8,5.7h0a3.1,3.1,0,0,1-3-3.1,3.138,3.138,0,0,1,3.2-3.1Zm74.1.1h0a3.031,3.031,0,0,1,3,3.1c0,4.1-6.2,4.1-6.2,0a3.2,3.2,0,0,1,3.2-3.1ZM29.4,81.4h0a3.031,3.031,0,0,1,3,3.1c0,4.1-6.2,4.1-6.2,0a3.2,3.2,0,0,1,3.2-3.1Zm46.1.1h0a3.031,3.031,0,0,1,3,3.1c0,4.1-6.2,4.1-6.2,0a3.138,3.138,0,0,1,3.2-3.1Z"
     style="fill:url(#j)"
     id="path48" /><g
     id="g341"
     transform="matrix(1.4280432,0,0,1.4280432,-22.49367,-23.435342)"
     style="stroke:#ffffff;stroke-width:0.735972;stroke-dasharray:none;stroke-opacity:1"><path
       d="m 82.116993,52.408939 c 0,-16.634241 -13.234297,-30.111828 -29.569289,-30.111828 -16.325665,0 -29.564697,13.477587 -29.564697,30.111828 0,5.871174 1.660262,11.34488 4.517667,15.977015 0.0093,0.06536 0.0093,0.126199 0.01865,0.191776 0.696792,3.937529 3.156509,6.808851 5.490027,6.397466 0.02827,-0.0048 0.04212,-0.03519 0.06558,-0.04211 2.403686,4.318677 6.037376,6.901242 9.568037,6.274617 0.266461,-0.0467 0.388142,-0.163796 0.444174,-0.33211 l 2.53943,-0.453501 c 2.010807,-0.355573 3.36242,-2.27632 3.006847,-4.287346 L 44.770865,54.218497 c -0.355573,-2.006216 -2.282296,-3.35302 -4.288512,-3.002257 l -2.54402,0.472373 c -0.112064,-0.135744 -0.271051,-0.224564 -0.528404,-0.17764 -2.557864,0.44891 -4.65771,2.454908 -5.925093,5.635097 -0.430258,1.094187 -0.706118,2.307651 -0.902411,3.565636 -0.02798,0 -0.06084,-0.02798 -0.09363,-0.02324 -1.276637,0.224345 -2.235371,1.407645 -2.745123,3.063097 -0.850969,-2.623513 -1.332668,-5.415561 -1.332668,-8.33111 0,-14.703001 11.705261,-26.623282 26.1367,-26.623282 14.441058,0 26.141511,11.920281 26.141511,26.623282 0,2.913436 -0.481772,5.705264 -1.328151,8.326374 -0.509752,-1.653049 -1.473223,-2.833943 -2.749932,-3.058289 -0.05122,-0.0093 -0.102737,0.03038 -0.154179,0.03738 -0.196366,-1.262793 -0.472372,-2.480775 -0.90722,-3.579771 -1.26731,-3.180189 -3.367156,-5.186187 -5.920503,-5.635098 -0.261724,-0.04692 -0.416121,0.0419 -0.532995,0.177641 l -2.539429,-0.472372 c -2.010807,-0.350764 -3.93294,0.99604 -4.288294,3.002257 l -3.862845,21.916243 c -0.355353,2.011025 0.991524,3.931774 3.002258,4.287346 l 2.53943,0.453501 c 0.05603,0.168314 0.17764,0.285405 0.44891,0.332111 3.54006,0.626623 7.183077,-1.967673 9.586762,-6.305075 0.03738,0.01625 0.06536,0.06536 0.107474,0.07257 2.333518,0.411386 4.798044,-2.459935 5.494763,-6.397465 0.01414,-0.06558 0.01414,-0.128604 0.02346,-0.194181 2.852814,-4.629731 4.508267,-10.103509 4.508267,-15.974683 z"
       fill="#27323a"
       id="path409"
       style="fill:url(#radialGradient2998);fill-opacity:1;stroke:#ffffff;stroke-width:0.735972;stroke-dasharray:none;stroke-opacity:1" /><path
       d="m 37.054575,52.941933 c 0.252616,1.445025 4.536101,25.751037 4.765256,27.04057 -2.974277,0.126199 -6.009105,-2.449443 -8.015321,-6.382383 0.289923,-1.568745 0.112282,-4.152549 -0.233964,-6.088598 -0.345954,-1.989968 -1.08967,-4.552641 -1.921914,-5.899445 0.163505,-1.44976 0.45831,-2.833943 0.944599,-4.068465 1.00085,-2.511159 2.600271,-4.026569 4.461344,-4.601679 z m 26.164753,27.040643 c 0.229155,-1.289606 4.512858,-25.595618 4.765475,-27.040569 1.861146,0.575109 3.460566,2.090519 4.461125,4.601677 0.495834,1.257984 0.795156,2.672551 0.958662,4.154882 -0.813592,1.370265 -1.533844,3.86758 -1.875282,5.813029 -0.336628,1.896339 -0.514342,4.421633 -0.247807,5.999778 -2.006144,3.981976 -5.064433,6.602139 -8.062173,6.471203 z"
       fill="#79ccbf"
       id="path411"
       style="fill:#ffffff;fill-opacity:1;stroke:#ffffff;stroke-width:0.735972;stroke-dasharray:none;stroke-opacity:1" /></g></svg>
